<?xml version="1.0" standalone="no"?>
<!DOCTYPE svg PUBLIC "-//W3C//DTD SVG 20010904//EN"
 "http://www.w3.org/TR/2001/REC-SVG-20010904/DTD/svg10.dtd">
<svg version="1.0" xmlns="http://www.w3.org/2000/svg"
 width="64.000000pt" height="64.000000pt" viewBox="0 0 64.000000 64.000000"
 preserveAspectRatio="xMidYMid meet">
<metadata>
Created by potrace 1.15, written by Peter Selinger 2001-2017
</metadata>
<g transform="translate(0.000000,64.000000) scale(0.100000,-0.100000)"
fill="#000000" stroke="none">
<path d="M280 565 c-8 -9 -30 -15 -56 -15 -32 0 -44 -4 -44 -14 0 -9 -12 -16
-27 -18 l-28 -3 0 -225 0 -225 195 0 195 0 0 225 0 225 -32 3 c-21 2 -33 9
-33 18 0 10 -12 14 -39 14 -22 0 -44 6 -51 15 -7 8 -25 15 -40 15 -15 0 -33
-7 -40 -15z m-10 -75 c0 -5 -25 -10 -55 -10 l-55 0 0 -190 0 -190 160 0 160 0
0 190 0 190 -55 0 c-30 0 -55 5 -55 10 0 14 104 12 118 -2 17 -17 17 -379 0
-396 -17 -17 -319 -17 -336 0 -17 17 -17 379 0 396 14 14 118 16 118 2z m0
-40 c0 -5 23 -10 50 -10 28 0 50 5 50 10 0 6 20 10 45 10 l45 0 0 -170 0 -170
-140 0 -140 0 0 170 0 170 45 0 c25 0 45 -4 45 -10z"/>
</g>
</svg>
